<svg width="25" height="19" viewBox="0 0 25 19" fill="none" xmlns="http://www.w3.org/2000/svg">
<path d="M0.421053 10.4474L8.47368 18.5C9.02632 19.0526 9.92105 19.0526 10.4474 18.5C11 17.9474 11 17.0526 10.4474 16.5263L4.78947 10.8421H23.6053C24.3684 10.8421 25 10.2105 25 9.44737C25 8.68421 24.3684 8.05263 23.6053 8.05263H4.78947L10.4474 2.39474C11 1.84211 11 0.947368 10.4474 0.421052C10.1842 0.157895 9.81579 0 9.44737 0C9.07895 0 8.73684 0.131579 8.44737 0.421052L0.421053 8.44737C0.157895 8.71053 0 9.07895 0 9.44737C0 9.81579 0.157895 10.1842 0.421053 10.4474Z" fill="white" fill-opacity="0.9"/>
</svg>
