<svg width="46" height="46" viewBox="0 0 46 46" fill="none" xmlns="http://www.w3.org/2000/svg">
<path d="M6.7208 6.7208C-2.24027 15.6819 -2.24027 30.2733 6.7208 39.2344C11.1617 43.7546 17.1093 45.975 22.9776 45.975C28.8459 45.975 34.7935 43.7546 39.2344 39.2344C48.1954 30.2733 48.1954 15.6819 39.2344 6.7208C30.2733 -2.24027 15.6819 -2.24027 6.7208 6.7208ZM37.0139 37.0139C29.3217 44.7062 16.7128 44.7062 8.94124 37.0139C1.249 29.3217 1.249 16.7128 8.94124 8.94124C12.827 5.05547 17.9023 3.15223 22.9776 3.15223C28.0529 3.15223 33.1282 5.05547 37.0139 8.94124C44.7062 16.7128 44.7062 29.2424 37.0139 37.0139Z" fill="#3AA6FF"/>
<path d="M29.7183 14.0166L22.9777 20.7572L16.237 14.0166L14.0166 16.237L20.7572 22.9777L14.0166 29.7183L16.237 31.9387L22.9777 25.1981L29.7183 31.9387L31.9387 29.7183L25.1981 22.9777L31.9387 16.237L29.7183 14.0166Z" fill="#3AA6FF"/>
</svg>
