<svg width="26" height="31" viewBox="0 0 26 31" fill="none" xmlns="http://www.w3.org/2000/svg">
<path d="M1.48002 10.9155H3.40067L4.76814 29.3795C4.80725 29.9069 5.24247 30.3144 5.76669 30.3144H20.2336C20.7578 30.3144 21.1931 29.9069 21.2322 29.3795L22.5997 10.9155H24.5203C25.0739 10.9155 25.5218 10.463 25.5218 9.90498V4.89008C25.5218 4.33205 25.0739 3.8796 24.5203 3.8796H19.0355V2.04761C19.0356 0.918708 18.125 0 17.0052 0H8.99516C7.87532 0 6.96478 0.918708 6.96478 2.04761V3.8796H1.48002C0.926457 3.8796 0.478516 4.33204 0.478516 4.89008V9.90499C0.478516 10.463 0.926457 10.9155 1.48002 10.9155ZM19.3045 28.2935H6.69582L5.40873 10.9155H20.5916L19.3045 28.2935ZM8.99516 2.02096L17.0326 2.0476V3.87959H8.97755L8.99516 2.02096ZM2.48152 5.90057H23.5188V8.89452H2.48152V5.90057Z" fill="black" fill-opacity="0.8"/>
<path d="M9.07181 26.2878C9.62537 26.2878 10.0733 25.8354 10.0733 25.2773V13.9316C10.0733 13.3736 9.62538 12.9211 9.07181 12.9211C8.51825 12.9211 8.07031 13.3736 8.07031 13.9316V25.2773C8.07031 25.8354 8.51825 26.2878 9.07181 26.2878Z" fill="black" fill-opacity="0.8"/>
<path d="M13.0015 26.2878C13.5551 26.2878 14.003 25.8354 14.003 25.2773V13.9316C14.003 13.3736 13.5551 12.9211 13.0015 12.9211C12.4479 12.9211 12 13.3736 12 13.9316V25.2773C12 25.8354 12.4479 26.2878 13.0015 26.2878Z" fill="black" fill-opacity="0.8"/>
<path d="M16.9292 26.2878C17.4828 26.2878 17.9307 25.8354 17.9307 25.2773V13.9316C17.9307 13.3736 17.4828 12.9211 16.9292 12.9211C16.3757 12.9211 15.9277 13.3736 15.9277 13.9316V25.2773C15.9277 25.8354 16.3757 26.2878 16.9292 26.2878Z" fill="black" fill-opacity="0.8"/>
</svg>
