<svg width="30" height="30" viewBox="0 0 30 30" fill="none" xmlns="http://www.w3.org/2000/svg">
<path d="M27.4608 2.50144C25.2839 0.324984 23.3559 0 22.4003 0C22.1418 0 21.9716 0.0251721 21.9107 0.0360675C21.6642 0.0796492 21.4365 0.197996 21.2599 0.374953L17.2527 4.38146L17.2523 4.38184C17.2516 4.38222 17.2512 4.38259 17.2512 4.38259L3.25924 18.3727L3.25811 18.3734L3.25736 18.3746L2.04063 19.5911C1.87079 19.7609 1.75467 19.9773 1.70695 20.2129L0.0242778 28.537C-0.0568874 28.9379 0.0682424 29.353 0.357957 29.6423C0.589053 29.8734 0.900561 30 1.22146 30C1.30188 30 1.38304 29.9921 1.46346 29.976L9.78853 28.2932C10.0241 28.2458 10.2402 28.1294 10.41 27.9599L29.6293 8.74377C29.8134 8.55967 29.934 8.32185 29.9731 8.0645C30.0148 7.79324 30.2955 5.33575 27.4608 2.50144ZM10.7648 24.1518L5.84863 19.2372L18.1155 6.97232L23.0312 11.8873L10.7648 24.1518ZM2.78277 27.2175L4.02768 21.0575L4.12162 20.9636L9.03737 25.8781L8.94343 25.9721L2.78277 27.2175ZM24.7582 10.1602L19.8429 5.24559L22.6325 2.45636C23.1744 2.5176 24.331 2.8253 25.7341 4.22818C27.1594 5.6536 27.4773 6.83294 27.5438 7.37508L24.7582 10.1602Z" fill="black" fill-opacity="0.8"/>
</svg>
