<svg width="80" height="80" viewBox="0 0 80 80" fill="none" xmlns="http://www.w3.org/2000/svg">
<g clip-path="url(#clip0)">
<path d="M19.4998 60.5007C23.3565 64.3575 28.329 66.9253 33.7884 67.8795C39.2478 68.8337 44.9489 68.1315 50.1708 65.8614C55.3927 63.5915 59.9006 59.8557 63.1249 55.1267C66.3492 50.3976 68.1447 44.8875 68.2846 39.2934C68.4245 33.6992 66.9023 28.2721 63.9106 23.6984C60.9189 19.1247 56.5922 15.6099 51.4773 13.5983C46.3625 11.5867 40.6894 11.1688 35.1755 12.3973C29.6615 13.6258 24.5543 16.4457 20.4998 20.5002C15.0627 25.9373 11.903 33.206 11.7154 40.7076C11.5278 48.2091 14.3279 55.3289 19.4998 60.5007ZM57.9377 22.0628C61.3123 25.4374 63.5593 29.7884 64.3942 34.5654C65.2292 39.3424 64.6146 44.3308 62.6284 48.8998C60.642 53.469 57.3734 57.4136 53.2353 60.2349C49.0974 63.056 44.2761 64.6272 39.3813 64.7495C34.4865 64.8719 29.7377 63.54 25.7358 60.9223C21.7337 58.3046 18.6583 54.5186 16.8981 50.0431C15.1379 45.5677 14.7722 40.6038 15.8472 35.779C16.9222 30.9543 19.3896 26.4855 22.9373 22.9378C27.6946 18.1804 34.0549 15.4156 40.6187 15.2515C47.1826 15.0874 53.4124 17.5375 57.9377 22.0628Z" fill="black"/>
<path d="M28.6558 44.0308C34.7496 50.1246 48.8951 51.4575 49.4932 51.5175C49.7577 51.5421 50.0273 51.5062 50.2819 51.4123C50.5365 51.3184 50.7692 51.169 50.9628 50.9754C51.1564 50.7818 51.3057 50.5491 51.3997 50.2945C51.4935 50.0401 51.5295 49.7703 51.5048 49.5059C51.4576 48.8949 50.1248 34.7495 44.031 28.6557C43.1061 27.6359 41.9688 26.8312 40.6915 26.2932C39.4144 25.7551 38.0255 25.4953 36.6136 25.5308C35.2018 25.566 33.7983 25.8955 32.4926 26.4981C31.1868 27.1009 30.0077 27.9634 29.0308 29.0306C27.9635 30.0077 27.101 31.1867 26.4983 32.4924C25.8957 33.7981 25.5661 35.2018 25.5308 36.6136C25.4955 38.0253 25.7552 39.4143 26.2933 40.6915C26.8314 41.9686 27.6359 43.106 28.6558 44.0308ZM41.4685 31.2182C45.3441 35.0938 47.0682 43.583 47.6901 47.6899C43.5832 47.068 35.1062 45.3561 31.2183 41.4683C30.5191 40.8639 29.9651 40.11 29.594 39.2571C29.2228 38.4045 29.0431 37.4729 29.0668 36.5251C29.0905 35.5774 29.3171 34.6357 29.7314 33.7633C30.1456 32.8909 30.7379 32.1084 31.4683 31.4682C32.1084 30.7378 32.891 30.1456 33.7634 29.7313C34.6357 29.317 35.5776 29.0903 36.5253 29.0666C37.4731 29.0429 38.4046 29.2227 39.2573 29.5938C40.11 29.965 40.8641 30.519 41.4685 31.2182Z" fill="black"/>
<path d="M38.9063 33.7818C37.56 32.4355 35.3215 32.4915 33.9062 33.9068C32.4909 35.3221 32.435 37.5606 33.7812 38.9068C35.1275 40.2531 37.366 40.1971 38.7813 38.7818C40.1966 37.3665 40.2525 35.128 38.9063 33.7818Z" fill="black"/>
</g>
<defs>
<clipPath id="clip0">
<rect width="55.155" height="57.9834" fill="white" transform="translate(41) rotate(45)"/>
</clipPath>
</defs>
</svg>
