<svg width="39" height="31" viewBox="0 0 39 31" fill="none" xmlns="http://www.w3.org/2000/svg">
<path d="M36.6562 4.35H2.15625C1.58438 4.35 1.03593 4.12085 0.631551 3.71296C0.227176 3.30507 0 2.75185 0 2.175C0 1.59815 0.227176 1.04493 0.631551 0.637043C1.03593 0.229151 1.58438 1.21561e-08 2.15625 0H36.6562C37.2281 1.21561e-08 37.7766 0.229151 38.1809 0.637043C38.5853 1.04493 38.8125 1.59815 38.8125 2.175C38.8125 2.75185 38.5853 3.30507 38.1809 3.71296C37.7766 4.12085 37.2281 4.35 36.6562 4.35V4.35ZM30.1875 15.225C30.1875 14.6482 29.9603 14.0949 29.5559 13.687C29.1516 13.2792 28.6031 13.05 28.0312 13.05H2.15625C1.58438 13.05 1.03593 13.2792 0.631551 13.687C0.227176 14.0949 0 14.6482 0 15.225C0 15.8018 0.227176 16.3551 0.631551 16.763C1.03593 17.1708 1.58438 17.4 2.15625 17.4H28.0312C28.6031 17.4 29.1516 17.1708 29.5559 16.763C29.9603 16.3551 30.1875 15.8018 30.1875 15.225ZM21.5625 28.275C21.5625 27.6982 21.3353 27.1449 20.9309 26.737C20.5266 26.3292 19.9781 26.1 19.4062 26.1H2.15625C1.58438 26.1 1.03593 26.3292 0.631551 26.737C0.227176 27.1449 0 27.6982 0 28.275C0 28.8518 0.227176 29.4051 0.631551 29.813C1.03593 30.2209 1.58438 30.45 2.15625 30.45H19.4062C19.9781 30.45 20.5266 30.2209 20.9309 29.813C21.3353 29.4051 21.5625 28.8518 21.5625 28.275V28.275Z" fill="white"/>
</svg>
