<svg width="29" height="28" viewBox="0 0 29 28" fill="none" xmlns="http://www.w3.org/2000/svg">
<path d="M4.375 28H8.75V24.5H4.375C4.14294 24.5 3.92038 24.4078 3.75628 24.2437C3.59219 24.0796 3.5 23.8571 3.5 23.625V4.375C3.5 4.14294 3.59219 3.92038 3.75628 3.75628C3.92038 3.59219 4.14294 3.5 4.375 3.5H8.75V0H4.375C3.21468 0 2.10188 0.460936 1.28141 1.28141C0.460936 2.10188 0 3.21468 0 4.375V23.625C0 24.1995 0.113162 24.7684 0.333027 25.2992C0.552891 25.83 0.875152 26.3123 1.28141 26.7186C1.68766 27.1248 2.16996 27.4471 2.70076 27.667C3.23156 27.8868 3.80047 28 4.375 28Z" fill="white" fill-opacity="0.9"/>
<path d="M21 6.27368L18.5238 8.74993L22.0237 12.2499H7V15.7499H22.0237L18.5238 19.2499L21 21.7262L27.4881 15.2381C27.6508 15.0755 27.7799 14.8825 27.868 14.6701C27.956 14.4576 28.0014 14.2299 28.0014 13.9999C28.0014 13.77 27.956 13.5422 27.868 13.3298C27.7799 13.1173 27.6508 12.9243 27.4881 12.7618L21 6.27368Z" fill="white" fill-opacity="0.9"/>
</svg>
