<svg width="329" height="329" viewBox="0 0 329 329" fill="none" xmlns="http://www.w3.org/2000/svg">
<path fill-rule="evenodd" clip-rule="evenodd" d="M113.81 180.959C114.541 195.687 115.272 210.021 116.375 223.974C116.74 232.109 117.837 239.863 118.202 247.998C118.933 260.397 119.299 272.795 120.03 285.194C120.396 292.174 120.761 299.535 121.127 306.508C121.864 315.424 119.299 323.171 111.257 327.435C109.423 328.209 107.224 327.822 105.03 328.209C105.03 326.274 103.934 323.952 104.665 322.397C107.224 316.972 107.224 311.546 106.858 306.121C106.492 294.497 106.858 282.872 106.492 271.247C105.761 257.687 105.761 243.734 102.837 230.561C100.272 219.323 99.9063 208.473 99.1752 197.235C98.0786 185.997 101.734 181.74 113.816 180.959H113.81ZM23.4199 177.476C24.8821 180.185 27.0755 182.12 27.441 184.83C29.2749 193.358 31.4682 201.499 32.2054 210.021C33.6677 230.948 34.3988 252.262 35.861 273.189C36.5921 281.704 38.7854 290.232 39.5166 298.761C40.6193 308.063 40.6193 316.972 41.3504 326.268C34.0332 328.596 28.5438 326.268 23.4199 323.171C17.5649 291.013 15 258.455 18.6677 225.523C19.7644 215.066 19.0333 204.209 19.0333 193.358C19.0333 188.326 17.9305 182.514 23.4199 177.476V177.476ZM279.955 304.96C286.541 304.96 292.761 306.121 299.353 306.121C308.858 306.121 318.015 308.831 327.16 313.101C323.139 320.068 317.284 321.623 311.063 322.004C298.251 322.784 285.444 322.391 272.266 322.784C260.562 323.171 248.846 324.332 237.136 324.719C232.012 325.106 226.888 325.493 222.136 324.332C208.22 320.849 194.683 323.171 181.145 325.881C179.317 326.268 177.855 326.268 176.027 326.661C176.758 326.274 176.758 326.274 175.656 325.887C175.29 324.332 174.193 322.01 173.828 319.688C173.456 316.585 174.559 314.643 177.483 313.875C177.849 313.875 177.849 313.875 178.214 313.488C189.565 311.94 200.903 310.005 212.254 308.831C225.06 307.282 237.867 306.508 250.68 305.734C260.562 305.347 270.438 304.96 279.955 304.96V304.96ZM147.319 185.959L148.215 185.997C148.58 187.933 149.677 189.875 149.677 191.81C150.408 204.209 151.139 216.607 151.505 229.013C151.505 232.109 151.139 235.599 151.87 238.702C154.435 249.94 154.069 261.564 153.704 273.189C153.338 287.91 153.704 303.018 154.069 317.746C154.069 322.01 153.338 324.726 148.952 325.5C143.456 326.274 142.353 325.887 139.795 320.455C136.139 312.327 135.408 304.186 136.505 295.658C137.967 282.872 139.795 270.473 141.257 257.687V255.752C136.87 238.315 141.622 220.097 139.429 202.66C139.063 198.79 139.795 194.913 140.526 191.423C141.988 187.939 144.181 185.61 148.215 186.004L147.319 185.959ZM75.3837 179.798C81.2447 213.511 83.8036 246.837 84.9064 280.549C85.2719 290.626 84.5347 300.696 84.1692 310.772C84.1692 320.842 81.2447 323.945 70.997 325.5C68.7372 320.839 67.7238 315.612 68.0664 310.385C68.7976 300.315 68.7976 290.232 68.432 280.156C67.7009 258.074 66.2387 235.599 65.5076 213.511C65.142 206.537 64.7764 199.17 64.7764 192.197C65.142 183.675 66.6042 182.133 75.3837 179.798V179.798ZM277.036 267.37C288.375 267.37 300.091 267.37 311.435 267.757C315.462 267.757 319.124 268.144 323.145 268.918C325.704 269.305 326.801 272.021 325.338 274.35C323.145 277.834 320.586 280.93 316.193 280.93L275.934 282.091C263.127 282.485 250.314 282.872 237.142 283.646C231.293 284.033 225.432 284.807 219.577 285.194C215.921 285.581 212.254 285.194 208.598 286.355C199.082 289.071 189.205 289.458 178.952 287.517C177.855 278.614 179.317 276.285 186.64 275.124C203.846 272.415 221.039 269.312 238.245 267.757C251.051 266.596 264.23 267.37 277.036 267.37ZM326.801 229.393C320.586 234.438 313.634 237.921 305.58 237.921C294.23 237.921 283.251 238.308 271.906 238.696C270.079 238.696 267.885 238.696 266.057 239.47C248.486 245.288 230.556 244.127 212.625 243.727C201.64 243.347 190.302 244.895 178.952 245.288C176.393 238.702 177.855 234.825 184.813 233.27C193.586 231.722 202.743 231.722 211.523 230.948C230.921 229.4 249.949 227.464 269.341 226.297C278.133 225.523 287.284 225.91 296.429 225.523C304.112 225.136 312.166 225.136 319.849 224.749C323.139 224.361 326.069 224.749 326.801 229.393V229.393ZM318.021 185.997C320.214 186.385 321.677 187.546 324.607 188.707C321.683 190.649 319.849 192.197 318.021 192.971C300.822 199.177 283.251 203.047 265.32 203.822C256.053 204.338 246.616 204.686 237.233 205.086L223.239 205.763H179.323C176.033 198.396 177.124 194.139 185.172 192.197C194.689 189.875 204.205 186.778 214.088 189.1C215.915 189.487 218.109 189.487 219.943 189.487C234.583 189.1 249.218 188.326 263.492 187.939C266.417 187.939 269.713 187.939 272.644 187.552C279.589 187.165 286.547 187.165 293.505 186.778C301.547 186.391 309.607 186.391 318.021 186.004V185.997ZM327.172 3.10575C327.903 12.7887 329 20.5428 329 28.2904C329 43.7921 329 59.2873 328.634 74.789C328.634 80.9884 327.538 87.1878 327.172 93.3872C326.807 96.8707 327.172 100.367 327.172 103.851C327.172 108.889 327.538 113.927 327.538 118.959C327.538 123.223 327.903 127.1 327.903 131.364C327.538 137.951 327.538 144.537 326.441 150.736C325.71 156.549 314.36 160.813 309.601 157.703C306.311 155.388 306.311 151.898 307.042 149.188C308.505 143.763 307.773 138.725 306.311 133.299C305.946 132.525 305.58 131.751 305.58 130.59C305.58 117.804 305.946 105.012 305.946 92.226C305.946 81.3755 305.58 70.1379 305.58 59.2873C305.58 44.5662 305.58 30.2257 306.311 15.5045C306.311 12.7951 309.236 8.91808 311.795 7.3634C316.559 5.81516 321.317 5.04105 327.172 3.10575V3.10575ZM181.151 5.4281C182.979 11.2404 185.538 16.6657 187 22.8651C188.828 32.5545 189.93 42.2374 191.399 51.9268C192.495 59.6744 193.592 67.0414 195.054 74.789C197.979 89.5166 199.075 104.625 197.979 119.739C196.888 130.584 195.42 141.441 193.958 153.065C191.399 154.226 188.474 155.775 185.544 157.323C179.683 159.645 176.393 156.936 176.393 150.356C176.393 133.299 176.758 116.249 176.393 99.5866C176.027 89.8972 173.468 80.2079 172.366 70.5249C170.903 55.8038 169.441 41.0762 168.71 26.3551C168.344 21.3169 170.172 15.8916 171.634 10.8534C172.731 6.58928 176.021 5.43456 181.151 5.43456V5.4281ZM117.843 126.319C122.961 126.319 128.45 126.707 133.58 127.881C136.505 128.261 140.16 129.816 141.257 132.138C143.085 136.396 137.967 136.396 136.139 138.725C129.918 146.479 121.133 146.085 113.079 148.021C108.996 149.02 104.659 148.879 100.272 149.066L98.0786 149.195V148.421C93.6858 148.801 89.293 148.801 84.5347 149.195C83.4381 149.195 82.3414 149.575 81.2447 149.195C57.0876 144.15 32.9366 143.376 8.77943 144.15C2.92444 144.531 0.359463 142.208 0 137.176C0 132.919 1.09667 129.816 5.48943 129.816C13.5377 129.042 21.9577 127.487 29.6405 128.261C49.4048 130.584 68.7976 129.422 88.5619 127.874C98.438 127.1 108.32 126.326 117.843 126.326V126.319ZM281.795 4.66044C282.891 14.3434 285.085 23.2651 284.353 32.5609C282.891 50.385 285.085 67.4349 285.816 84.8719C286.547 102.309 286.181 119.746 286.181 137.576C286.181 143.382 278.499 149.195 273.009 147.64C269.354 146.479 266.782 143.769 266.782 139.118C267.148 131.371 267.514 123.617 267.148 115.869C266.417 99.206 265.32 82.5431 264.589 66.2673C264.224 60.8485 264.589 55.0297 264.589 49.2174C264.589 44.5727 264.955 39.5344 265.32 34.8897C266.051 27.9098 266.417 20.5428 267.879 13.9563C269.719 6.58928 271.912 5.4281 281.795 4.65399V4.66044ZM227.997 3.1122C234.211 49.2238 239.335 95.3354 239.707 143.382C236.411 143.769 233.486 144.931 230.556 144.931C225.432 144.931 222.508 141.447 222.508 136.022C221.77 117.804 221.039 99.9801 220.314 81.769C219.583 60.0679 218.109 38.3733 214.453 17.0592C212.625 5.82161 216.647 1.94458 227.997 3.1122V3.1122ZM138.698 80.2143C139.429 80.2143 140.16 80.6014 140.891 80.6014C141.988 88.3555 139.063 93.7743 132.483 94.9419C129.547 95.329 126.257 95.329 123.332 95.329C104.299 94.5484 85.2658 96.4901 66.2387 98.4254C49.0393 99.9737 31.8399 99.9737 15 100.748C13.9033 100.748 12.4411 100.748 11.71 100.361C9.23637 98.619 6.76887 96.6579 4.29528 94.6387L1.82778 92.6131V90.2908C6.94556 88.7361 11.71 86.4202 16.8338 86.0267C57.4592 82.1496 98.0786 77.1114 138.698 80.2143V80.2143ZM132.112 38.7539C137.595 39.1409 143.091 40.6892 148.215 41.4633C146.387 51.1527 143.091 54.2556 135.036 54.2556C124.057 54.2556 113.079 53.4815 102.1 53.4815C89.6586 53.4815 77.5831 54.2556 65.142 54.6426C48.6737 55.0297 32.2054 58.5132 15.7311 55.8038C14.2689 55.4168 12.8066 55.4168 11.71 55.0297C10.2477 54.2556 8.78552 53.4815 7.3172 53.0879C6.95165 44.5662 6.95165 44.1727 13.5377 43.3986C22.3233 42.2374 30.7371 41.4633 39.5226 40.6892C70.2926 37.5215 101.248 36.8745 132.112 38.7539V38.7539ZM139.063 2.71224C141.622 2.71224 144.181 2.71224 146.752 3.48636C149.677 4.26048 151.139 6.58283 149.311 9.30514C146.387 14.724 143.091 19.3751 136.139 18.2075C134.311 17.8269 132.112 18.2075 130.284 18.2075C130.284 17.8269 130.284 17.4398 129.918 17.0528C120.396 18.9881 110.885 20.5363 101.003 22.478C99.5408 22.8651 98.0786 23.2522 96.9819 23.2522C80.8792 24.0263 64.4109 25.1875 48.3021 25.5745C44.281 25.5745 40.2599 24.4133 36.2266 23.2522C30.0121 21.3169 23.0544 21.7039 16.4683 22.478C10.6011 23.6392 7.31111 21.7039 4.02111 17.4463C1.09667 13.9498 1.82778 10.8469 5.84889 9.29869C7.3172 8.51812 8.77333 8.13752 10.6072 8.13752C19.3927 6.98279 28.5438 5.43456 37.3293 4.64754C46.4743 3.87342 55.9909 4.26048 65.142 3.0993C89.6586 -0.384229 114.547 1.16401 139.063 2.71224V2.71224Z" fill="#04365F"/>
</svg>
