<svg width="80" height="80" viewBox="0 0 80 80" fill="none" xmlns="http://www.w3.org/2000/svg">
<g clip-path="url(#clip0)">
<path d="M60.5002 19.5003C56.6435 15.6435 51.671 13.0757 46.2116 12.1215C40.7522 11.1673 35.0511 11.8694 29.8292 14.1395C24.6073 16.4095 20.0994 20.1452 16.8751 24.8742C13.6508 29.6034 11.8553 35.1135 11.7154 40.7076C11.5755 46.3017 13.0977 51.7289 16.0894 56.3026C19.0811 60.8763 23.4078 64.391 28.5227 66.4027C33.6375 68.4143 39.3106 68.8322 44.8245 67.6037C50.3385 66.3751 55.4457 63.5553 59.5002 59.5007C64.9373 54.0637 68.097 46.795 68.2846 39.2934C68.4722 31.7918 65.6721 24.6721 60.5002 19.5003ZM22.0623 57.9382C18.6877 54.5636 16.4407 50.2126 15.6058 45.4356C14.7708 40.6586 15.3854 35.6702 17.3716 31.1011C19.358 26.532 22.6266 22.5874 26.7647 19.7661C30.9026 16.945 35.7239 15.3738 40.6187 15.2515C45.5135 15.1291 50.2623 16.461 54.2642 19.0786C58.2663 21.6964 61.3417 25.4824 63.1019 29.9579C64.8621 34.4333 65.2278 39.3972 64.1528 44.2219C63.0778 49.0467 60.6104 53.5155 57.0627 57.0632C52.3054 61.8205 45.9451 64.5854 39.3813 64.7495C32.8174 64.9136 26.5876 62.4635 22.0623 57.9382Z" fill="black"/>
<path d="M51.3442 35.9702C45.2504 29.8763 31.1049 28.5435 30.5068 28.4835C30.2423 28.4589 29.9727 28.4947 29.7181 28.5887C29.4635 28.6826 29.2308 28.832 29.0372 29.0256C28.8436 29.2192 28.6943 29.4519 28.6003 29.7065C28.5065 29.9609 28.4705 30.2306 28.4952 30.4951C28.5424 31.106 29.8752 45.2515 35.969 51.3453C36.8939 52.3651 38.0312 53.1698 39.3085 53.7077C40.5856 54.2459 41.9745 54.5056 43.3864 54.4702C44.7982 54.4349 46.2017 54.1055 47.5074 53.5028C48.8132 52.9001 49.9923 52.0376 50.9692 50.9703C52.0365 49.9933 52.899 48.8143 53.5017 47.5086C54.1043 46.2029 54.4339 44.7992 54.4692 43.3874C54.5045 41.9756 54.2448 40.5867 53.7067 39.3095C53.1686 38.0324 52.3641 36.895 51.3442 35.9702ZM38.5315 48.7828C34.6559 44.9071 32.9318 36.418 32.3099 32.3111C36.4168 32.9329 44.8938 34.6448 48.7817 38.5327C49.4809 39.1371 50.0349 39.891 50.406 40.7438C50.7772 41.5965 50.9569 42.5281 50.9332 43.4758C50.9095 44.4236 50.6829 45.3653 50.2686 46.2377C49.8544 47.11 49.2621 47.8926 48.5317 48.5328C47.8916 49.2632 47.109 49.8554 46.2366 50.2697C45.3643 50.684 44.4224 50.9106 43.4747 50.9343C42.5269 50.958 41.5954 50.7783 40.7427 50.4071C39.89 50.0359 39.1359 49.482 38.5315 48.7828Z" fill="black"/>
<path d="M41.0937 46.2192C42.44 47.5655 44.6785 47.5095 46.0938 46.0942C47.5091 44.6789 47.565 42.4404 46.2188 41.0942C44.8725 39.7479 42.634 39.8039 41.2187 41.2192C39.8034 42.6344 39.7475 44.873 41.0937 46.2192Z" fill="black"/>
</g>
<defs>
<clipPath id="clip0">
<rect width="55.155" height="57.9834" fill="white" transform="translate(39 80.001) rotate(-135)"/>
</clipPath>
</defs>
</svg>
