<svg width="72" height="72" viewBox="0 0 72 72" fill="none" xmlns="http://www.w3.org/2000/svg">
<path d="M28.9985 0C13.0187 0 0 13.0186 0 28.9985C0 44.9784 13.0187 57.9971 28.9985 57.9971C35.9097 57.9971 42.2579 55.554 47.2476 51.4974L66.8716 71.1215C68.0431 72.2929 69.9499 72.293 71.1214 71.1215C72.2929 69.95 72.2929 68.0744 71.1214 66.903L51.4974 47.2789C55.5622 42.2866 57.9971 35.9174 57.9971 28.9985C57.9971 13.0186 44.9784 0 28.9985 0ZM28.9985 5.99969C41.7359 5.99969 51.9974 16.2611 51.9974 28.9985C51.9974 41.7358 41.7358 51.9974 28.9985 51.9974C16.2612 51.9974 5.9997 41.7358 5.9997 28.9985C5.9997 16.2611 16.2612 5.99969 28.9985 5.99969V5.99969Z" fill="black"/>
</svg>
